HIERARCHY
ROOT Hips
{
	OFFSET 0.00000 0.00000 0.00000
	CHANNELS 6 Xposition Yposition Zposition Zrotation Yrotation Xrotation 
	JOINT LHipJoint
	{
		OFFSET 0 0 0
		CHANNELS 3 Zrotation Yrotation Xrotation
		JOINT LeftUpLeg
		{
			OFFSET 1.54859 -1.61379 0.86856
			CHANNELS 3 Zrotation Yrotation Xrotation
			JOINT LeftLeg
			{
				OFFSET 2.25087 -6.18423 0.00000
				CHANNELS 3 Zrotation Yrotation Xrotation
				JOINT LeftFoot
				{
					OFFSET 2.40328 -6.60297 0.00000
					CHANNELS 3 Zrotation Yrotation Xrotation
					JOINT LeftToeBase
					{
						OFFSET 0.17435 -0.47901 2.02453
						CHANNELS 3 Zrotation Yrotation Xrotation
						End Site
						{
							OFFSET 0.00000 -0.00000 1.04844
						}
					}
				}
			}
		}
	}
	JOINT RHipJoint
	{
		OFFSET 0 0 0
		CHANNELS 3 Zrotation Yrotation Xrotation
		JOINT RightUpLeg
		{
			OFFSET -1.54669 -1.61379 0.86856
			CHANNELS 3 Zrotation Yrotation Xrotation
			JOINT RightLeg
			{
				OFFSET -2.28132 -6.26789 0.00000
				CHANNELS 3 Zrotation Yrotation Xrotation
				JOINT RightFoot
				{
					OFFSET -2.51636 -6.91365 0.00000
					CHANNELS 3 Zrotation Yrotation Xrotation
					JOINT RightToeBase
					{
						OFFSET -0.15124 -0.41552 2.21090
						CHANNELS 3 Zrotation Yrotation Xrotation
						End Site
						{
							OFFSET -0.00000 -0.00000 1.13399
						}
					}
				}
			}
		}
	}
	JOINT LowerBack
	{
		OFFSET 0 0 0
		CHANNELS 3 Zrotation Yrotation Xrotation
		JOINT Spine
		{
			OFFSET -0.04287 2.26161 -0.25690
			CHANNELS 3 Zrotation Yrotation Xrotation
			JOINT Spine1
			{
				OFFSET 0.02248 2.28395 -0.10140
				CHANNELS 3 Zrotation Yrotation Xrotation
				JOINT Neck
				{
					OFFSET 0 0 0
					CHANNELS 3 Zrotation Yrotation Xrotation
					JOINT Neck1
					{
						OFFSET -0.11644 1.38496 0.11345
						CHANNELS 3 Zrotation Yrotation Xrotation
						JOINT Head
						{
							OFFSET 0.29383 1.36600 0.06642
							CHANNELS 3 Zrotation Yrotation Xrotation
							End Site
							{
								OFFSET 0.11075 1.41395 -0.00294
							}
						}
					}
				}
				JOINT LeftShoulder
				{
					OFFSET 0 0 0
					CHANNELS 3 Zrotation Yrotation Xrotation
					JOINT LeftArm
					{
						OFFSET 3.51628 0.59542 -0.30346
						CHANNELS 3 Zrotation Yrotation Xrotation
						JOINT LeftForeArm
						{
							OFFSET 4.76405 -0.00000 0.00000
							CHANNELS 3 Zrotation Yrotation Xrotation
							JOINT LeftHand
							{
								OFFSET 3.13759 -0.00000 -0.00000
								CHANNELS 3 Zrotation Yrotation Xrotation
								JOINT LeftFingerBase
								{
									OFFSET 0 0 0
									CHANNELS 3 Zrotation Yrotation Xrotation
									JOINT LeftHandIndex1
									{
										OFFSET 0.73226 -0.00000 -0.00000
										CHANNELS 3 Zrotation Yrotation Xrotation
										End Site
										{
											OFFSET 0.59037 -0.00000 -0.00000
										}
									}
								}
								JOINT LThumb
								{
									OFFSET 0 0 0
									CHANNELS 3 Zrotation Yrotation Xrotation
									End Site
									{
										OFFSET 0.59938 -0.00000 0.59938
									}
								}
							}
						}
					}
				}
				JOINT RightShoulder
				{
					OFFSET 0 0 0
					CHANNELS 3 Zrotation Yrotation Xrotation
					JOINT RightArm
					{
						OFFSET -3.30990 0.84213 -0.36430
						CHANNELS 3 Zrotation Yrotation Xrotation
						JOINT RightForeArm
						{
							OFFSET -5.10161 -0.00000 -0.00000
							CHANNELS 3 Zrotation Yrotation Xrotation
							JOINT RightHand
							{
								OFFSET -3.23267 -0.00000 -0.00000
								CHANNELS 3 Zrotation Yrotation Xrotation
								JOINT RightFingerBase
								{
									OFFSET 0 0 0
									CHANNELS 3 Zrotation Yrotation Xrotation
									JOINT RightHandIndex1
									{
										OFFSET -0.70200 -0.00000 -0.00000
										CHANNELS 3 Zrotation Yrotation Xrotation
										End Site
										{
											OFFSET -0.56597 -0.00000 -0.00000
										}
									}
								}
								JOINT RThumb
								{
									OFFSET 0 0 0
									CHANNELS 3 Zrotation Yrotation Xrotation
									End Site
									{
										OFFSET -0.57461 -0.00000 0.57461
									}
								}
							}
						}
					}
				}
			}
		}
	}
}
MOTION
Frames: 15
Frame Time: .0083333
32.6548 15.493 0.2543 0 0 0 0 0 0 -21 0 0 0 0 0 0 0 0 0 0 0 0 0 0 21 0 0 0 0 0 0 0 0 0 0 0 0 0 0 0 0 0 0 0 0 0 0 -16 0 0 21 0 0 11 0 0 0 -8 0 0 0 0 0 0 0 0 0 0 0 0 0 0 0 0 0 0 0 0 8 0 0 0 0 0 0 0 0 0 0 0 0 0 0 0 0 0
32.6548 15.4930 0.2543 173.8610 -65.8889 -176.2750 0.0000 0.0000 0.0000 -19.1746 0.7382 -7.2282 3.1308 10.9038 31.9560 1.4870 8.6095 -27.5736 0.2415 -3.1625 -8.7315 0.0000 0.0000 0.0000 14.7440 1.5417 -9.9029 -3.7459 -11.8143 35.0782 0.0171 -17.8592 -25.1472 -1.5662 7.8971 -22.4019 -4.5558 0.6198 2.1963 0.3805 0.6264 6.6243 2.9525 -0.0399 5.5921 -13.8760 -2.4814 0.5212 17.2613 -2.6610 -10.7961 7.7737 -1.6120 -2.7416 -0.0000 0.0000 0.0000 -97.1589 -7.1786 14.4896 10.3318 -17.2569 -1.5720 -0.0000 -0.0000 8.1878 17.3960 22.2423 6.7633 -7.1250 0.0000 -0.0000 -11.8763 52.7890 -2.3023 -0.0000 0.0000 0.0000 92.4314 4.9791 9.1881 -14.9347 24.0551 -3.1993 0.0000 0.0000 14.0611 -17.5980 25.3049 -7.7207 7.1250 -0.0000 -0.0000 7.3026 -3.7816 6.8620
32.6536 15.4908 0.2501 173.8720 -65.7798 -176.3680 0.0000 0.0000 0.0000 -19.1487 0.9163 -7.1597 3.1295 10.9018 31.9493 1.5120 8.4718 -27.6542 0.2218 -3.0319 -8.3676 0.0000 0.0000 0.0000 14.7087 1.3759 -9.9041 -3.7550 -11.8271 35.1229 -0.0780 -17.3333 -25.2443 -1.4907 7.7132 -21.8463 -4.6312 0.6630 2.3710 0.4144 0.6727 6.6019 3.0295 -0.0186 5.4642 -13.6936 -2.4429 0.3426 17.0254 -2.6141 -10.5826 7.6532 -1.5743 -2.6662 -0.0000 0.0000 0.0000 -97.2109 -7.0423 14.4496 10.3890 -17.3457 -1.5889 -0.0000 -0.0000 8.4618 17.2903 22.4802 6.7876 -7.1250 0.0000 -0.0000 -12.0802 53.0084 -2.4081 -0.0000 0.0000 0.0000 92.3799 4.9235 9.2310 -14.9415 24.0645 -3.2020 0.0000 0.0000 13.9407 -17.5870 25.1877 -7.6827 7.1250 -0.0000 -0.0000 7.2997 -3.9025 6.8427
32.6511 15.4881 0.2452 174.1850 -65.6594 -176.7110 0.0000 0.0000 0.0000 -19.0060 1.0249 -7.0934 3.1348 10.9102 31.9775 1.5610 8.3074 -27.8837 0.1853 -2.7723 -7.6453 0.0000 0.0000 0.0000 14.8263 1.2979 -9.9035 -3.7656 -11.8417 35.1743 -0.1649 -16.8818 -25.3861 -1.4150 7.5233 -21.2753 -4.3355 0.7372 2.3401 0.2744 0.7727 6.6864 2.7204 0.0444 5.5648 -13.4285 -2.3906 0.1145 17.0726 -2.5247 -10.4451 7.6138 -1.5338 -2.6042 0.0000 -0.0000 0.0000 -96.9010 -7.0967 14.5783 10.4039 -17.3689 -1.5934 -0.0000 -0.0000 8.5495 17.1994 22.6154 6.7880 -7.1250 0.0000 -0.0000 -12.2279 53.1272 -2.4740 0.0000 -0.0000 0.0000 92.7245 5.1020 9.0579 -14.9042 24.0125 -3.1869 0.0000 0.0000 14.0039 -17.7025 25.0461 -7.6956 7.1250 -0.0000 -0.0000 7.2176 -4.0288 6.7475
32.6471 15.4856 0.2397 174.3360 -65.5512 -176.8650 0.0000 0.0000 0.0000 -18.9271 1.1168 -7.0649 3.1361 10.9122 31.9842 1.5935 8.1823 -28.0244 0.1502 -2.4975 -6.8827 0.0000 0.0000 0.0000 14.8759 1.2354 -9.9702 -3.7808 -11.8628 35.2483 -0.1737 -16.7803 -25.3290 -1.4301 7.5616 -21.3902 -4.1587 0.7925 2.2701 0.1667 0.8501 6.7588 2.5117 0.0898 5.6776 -13.4387 -2.2566 -0.1812 17.2193 -2.3292 -10.1298 7.6501 -1.4259 -2.4898 0.0000 -0.0000 0.0000 -96.6216 -7.3250 14.8040 10.3483 -17.2825 -1.5768 -0.0000 -0.0000 8.3306 17.2044 22.9276 6.8780 -7.1250 0.0000 -0.0000 -12.3564 53.4400 -2.5959 0.0000 -0.0000 0.0000 92.9990 5.2772 8.8922 -14.8752 23.9719 -3.1750 0.0000 0.0000 14.0795 -17.7991 24.9979 -7.7261 7.1250 -0.0000 -0.0000 7.1547 -4.0629 6.6831
32.6461 15.4834 0.2352 174.1910 -65.5336 -176.7550 0.0000 0.0000 0.0000 -18.9402 1.2846 -7.0966 3.1378 10.9149 31.9934 1.5939 8.0466 -27.9366 0.1441 -2.4464 -6.7411 0.0000 0.0000 0.0000 14.8148 1.1942 -10.0108 -3.7985 -11.8874 35.3347 -0.1726 -16.7813 -25.3205 -1.4351 7.5741 -21.4277 -4.1967 0.8083 2.3036 0.1108 0.8692 6.8096 2.4749 0.0956 5.7116 -13.1670 -2.2665 -0.3831 17.0017 -2.3415 -10.0013 7.5231 -1.4240 -2.4255 0.0000 -0.0000 0.0000 -96.4855 -7.5121 15.0172 10.3503 -17.2856 -1.5774 -0.0000 -0.0000 8.0211 17.1258 23.5050 7.0061 -7.1250 0.0000 -0.0000 -12.6907 54.0012 -2.8431 0.0000 -0.0000 0.0000 93.1147 5.3881 8.8629 -14.8790 23.9773 -3.1766 0.0000 0.0000 14.0691 -17.8317 24.9816 -7.7364 7.1250 -0.0000 -0.0000 7.1334 -4.0744 6.6614
32.6445 15.4800 0.2314 173.9760 -65.5420 -176.6020 0.0000 0.0000 0.0000 -18.9996 1.4047 -7.0818 3.1402 10.9186 32.0059 1.6026 7.8884 -27.8927 0.1404 -2.4150 -6.6541 0.0000 0.0000 0.0000 14.7172 1.1426 -10.0153 -3.8176 -11.9137 35.4274 -0.2449 -16.5092 -25.5812 -1.3250 7.2898 -20.5769 -4.3084 0.8053 2.4094 0.1041 0.8601 6.7999 2.5290 0.0865 5.6410 -13.0246 -2.3059 -0.4623 16.8043 -2.4100 -9.7871 7.4258 -1.4467 -2.3464 0.0000 0.0000 0.0000 -96.5393 -7.4757 14.8813 10.3293 -17.2531 -1.5712 -0.0000 -0.0000 7.9261 17.1533 23.4578 7.0048 -7.1250 0.0000 -0.0000 -12.6418 53.9594 -2.8189 0.0000 0.0000 0.0000 93.0974 5.3483 8.9557 -14.8783 23.9763 -3.1763 0.0000 0.0000 14.0142 -17.9209 25.0339 -7.7923 7.1250 -0.0000 -0.0000 7.0833 -4.0072 6.6228
32.6391 15.4759 0.2260 173.9860 -65.4349 -176.6580 0.0000 0.0000 0.0000 -19.0016 1.4131 -6.9844 3.1418 10.9212 32.0144 1.6407 7.7684 -28.0768 0.1134 -2.1707 -5.9777 0.0000 0.0000 0.0000 14.7021 1.0947 -10.0397 -3.8380 -11.9417 35.5260 -0.3177 -16.1948 -25.7923 -1.2491 7.0859 -19.9702 -4.3615 0.8314 2.5106 0.1512 0.8895 6.7406 2.6070 0.1019 5.5170 -13.0749 -2.2389 -0.4403 16.7510 -2.3267 -9.7227 7.4159 -1.3996 -2.3453 -0.0000 -0.0000 0.0000 -96.7043 -7.3386 14.3216 10.2210 -17.0845 -1.5392 -0.0000 -0.0000 8.3172 17.1795 22.8832 6.8551 -7.1250 0.0000 -0.0000 -12.3624 53.3912 -2.5823 -0.0000 -0.0000 0.0000 92.9970 5.1827 9.1022 -14.8763 23.9735 -3.1755 0.0000 0.0000 13.8924 -17.9687 25.0985 -7.8328 7.1250 -0.0000 -0.0000 7.0596 -3.9339 6.6099
32.6328 15.4716 0.2207 174.2000 -65.3334 -176.9070 0.0000 0.0000 0.0000 -18.9028 1.4068 -6.8755 3.1429 10.9229 32.0203 1.6796 7.6343 -28.2561 0.0813 -1.8394 -5.0620 0.0000 0.0000 0.0000 14.7737 0.9860 -10.0767 -3.8583 -11.9695 35.6240 -0.3354 -16.0608 -25.7741 -1.2918 7.2016 -20.3139 -4.2948 0.8467 2.6481 0.1940 0.9013 6.6892 2.6126 0.1146 5.3828 -13.1426 -2.0762 -0.6251 16.7022 -2.1030 -9.5407 7.4046 -1.2731 -2.2965 -0.0000 -0.0000 0.0000 -96.7795 -7.2892 13.7771 10.0981 -16.8929 -1.5033 -0.0000 -0.0000 8.9236 17.0378 22.8048 6.7738 -7.1250 0.0000 -0.0000 -12.4700 53.2870 -2.5733 -0.0000 -0.0000 0.0000 92.9314 5.0159 9.2899 -14.8867 23.9881 -3.1797 0.0000 0.0000 13.7555 -17.8950 25.0955 -7.7981 7.1250 -0.0000 -0.0000 7.1043 -3.9485 6.6505
32.6241 15.4670 0.2151 174.1500 -65.2906 -176.9300 0.0000 0.0000 0.0000 -18.8949 1.5683 -6.7994 3.1449 10.9260 32.0308 1.6845 7.5311 -28.2246 0.0773 -1.7933 -4.9349 0.0000 0.0000 0.0000 14.6939 0.7314 -10.1143 -3.8789 -11.9976 35.7233 -0.3760 -15.7806 -25.7692 -1.3169 7.2683 -20.5127 -4.3005 0.8269 2.7184 0.1803 0.8702 6.6959 2.6000 0.0990 5.3524 -13.2160 -1.9606 -0.5707 16.7179 -1.9505 -9.5224 7.4231 -1.1963 -2.3231 0.0000 0.0000 0.0000 -96.7083 -7.4422 13.5692 9.9388 -16.6438 -1.4574 -0.0000 -0.0000 9.2360 16.9928 22.9808 6.8038 -7.1250 0.0000 -0.0000 -12.5913 53.4544 -2.6509 0.0000 0.0000 0.0000 92.9254 4.9026 9.5048 -14.9056 24.0144 -3.1874 0.0000 0.0000 13.6655 -17.7873 25.1000 -7.7499 7.1250 -0.0000 -0.0000 7.1703 -3.9607 6.7116
32.6133 15.4621 0.2072 173.9390 -65.2064 -176.7910 0.0000 0.0000 0.0000 -18.9674 1.7930 -6.7476 3.1468 10.9290 32.0409 1.6729 7.5692 -28.1696 0.0990 -2.0287 -5.5850 0.0000 0.0000 0.0000 14.5401 0.5289 -10.1349 -3.9017 -12.0285 35.8327 -0.4485 -15.3917 -25.9016 -1.2732 7.1515 -20.1650 -4.3300 0.8290 2.6439 0.0924 0.8772 6.7739 2.5262 0.0973 5.4781 -12.9399 -1.8685 -0.5653 16.4841 -1.8224 -9.7158 7.3024 -1.1393 -2.4081 0.0000 -0.0000 0.0000 -96.4806 -7.7603 13.4143 9.7417 -16.3346 -1.4014 -0.0000 -0.0000 9.6750 16.8007 22.9475 6.7139 -7.1250 0.0000 -0.0000 -12.7686 53.3861 -2.6677 0.0000 -0.0000 0.0000 93.0422 4.8822 9.6988 -14.9399 24.0624 -3.2014 0.0000 0.0000 13.5614 -17.6611 25.1653 -7.7104 7.1250 -0.0000 -0.0000 7.2527 -3.9138 6.7964
32.6032 15.4568 0.1999 173.8470 -65.0839 -176.7110 0.0000 0.0000 0.0000 -18.9911 1.9916 -6.7565 3.1487 10.9320 32.0509 1.6762 7.5486 -28.1789 0.1168 -2.2032 -6.0674 0.0000 0.0000 0.0000 14.4710 0.4985 -10.1789 -3.9282 -12.0642 35.9596 -0.4848 -15.2388 -26.0185 -1.2467 7.0795 -19.9510 -4.4701 0.8414 2.8045 0.1516 0.8868 6.6573 2.6642 0.1024 5.2605 -12.7298 -1.7719 -0.8600 16.1723 -1.6893 -9.5672 7.1554 -1.0558 -2.3443 0.0000 -0.0000 0.0000 -96.5124 -7.6079 13.4411 9.7090 -16.2832 -1.3923 -0.0000 -0.0000 9.8001 16.6366 23.0564 6.6747 -7.1250 0.0000 -0.0000 -12.9803 53.4643 -2.7381 0.0000 -0.0000 0.0000 92.9203 4.5950 9.9272 -14.9726 24.1079 -3.2147 0.0000 0.0000 13.4148 -17.4798 25.3806 -7.6873 7.1250 -0.0000 -0.0000 7.3807 -3.7230 6.9448
32.5952 15.4519 0.1931 173.6950 -65.0187 -176.5520 0.0000 0.0000 0.0000 -19.0082 2.2442 -6.8405 3.1551 10.9421 32.0847 1.6882 7.3326 -28.1246 0.1221 -2.2524 -6.2039 0.0000 0.0000 0.0000 14.3879 0.4643 -10.2665 -3.9543 -12.0993 36.0842 -0.4832 -15.2699 -26.0413 -1.2500 7.0886 -19.9780 -4.4338 0.8571 2.6329 0.0586 0.9161 6.7931 2.5500 0.1104 5.5017 -12.6644 -1.7975 -1.1072 16.1636 -1.7190 -9.3368 7.1326 -1.0596 -2.2321 -0.0000 0.0000 0.0000 -96.3823 -7.7816 13.6850 9.7189 -16.2987 -1.3950 -0.0000 -0.0000 9.6987 16.5837 23.3231 6.7244 -7.1250 0.0000 -0.0000 -13.1526 53.7194 -2.8581 -0.0000 0.0000 0.0000 93.0630 4.8110 9.9108 -14.9324 24.0519 -3.1984 0.0000 0.0000 13.4869 -17.3789 25.5399 -7.6849 7.1250 -0.0000 -0.0000 7.4551 -3.5768 7.0363
32.5863 15.4456 0.1852 173.5870 -64.9894 -176.4720 0.0000 0.0000 0.0000 -18.9940 2.5056 -6.9192 3.1674 10.9612 32.1490 1.6580 7.3373 -27.9213 0.1636 -2.6062 -7.1843 0.0000 0.0000 0.0000 14.3228 0.3448 -10.3294 -3.9775 -12.1304 36.1950 -0.4684 -15.3262 -25.9871 -1.2747 7.1556 -20.1771 -4.3588 0.8772 2.5481 -0.0704 0.9487 6.8769 2.3755 0.1277 5.6390 -12.5232 -1.7561 -1.2302 16.1519 -1.6630 -9.1851 7.0990 -1.0293 -2.1773 -0.0000 0.0000 0.0000 -96.2015 -7.8346 13.7705 9.6607 -16.2071 -1.3787 -0.0000 -0.0000 9.9231 16.6781 23.4945 6.8110 -7.1250 0.0000 -0.0000 -13.1359 53.9071 -2.9151 -0.0000 0.0000 0.0000 93.2937 4.9217 9.9391 -14.8991 24.0053 -3.1848 0.0000 0.0000 13.4885 -17.4942 25.4049 -7.7008 7.1250 -0.0000 -0.0000 7.3740 -3.6961 6.9420
32.5719 15.4390 0.1762 173.7320 -64.9279 -176.6790 0.0000 0.0000 0.0000 -18.8621 2.8460 -6.9368 3.1828 10.9853 32.2302 1.6129 7.4001 -27.6496 0.2312 -3.0950 -8.5432 0.0000 0.0000 0.0000 14.3643 0.2103 -10.2935 -3.9985 -12.1584 36.2948 -0.4709 -15.3554 -26.0405 -1.3284 7.2988 -20.6036 -4.2339 0.8929 2.5320 -0.1317 0.9699 6.9186 2.2425 0.1436 5.6927 -12.5710 -1.7065 -1.2520 16.3404 -1.5929 -9.0806 7.1665 -0.9969 -2.1496 -0.0000 -0.0000 0.0000 -96.0062 -7.7608 14.0946 9.6130 -16.1319 -1.3654 -0.0000 -0.0000 9.8861 17.1451 23.3206 6.9630 -7.1250 0.0000 -0.0000 -12.5886 53.8212 -2.7640 -0.0000 -0.0000 0.0000 93.4585 4.9156 10.0308 -14.8658 23.9588 -3.1712 0.0000 0.0000 13.4895 -17.5922 25.2189 -7.6938 7.1250 -0.0000 -0.0000 7.2991 -3.8700 6.8466
